<?xml version="1.0" standalone="no"?>
<!DOCTYPE svg PUBLIC "-//W3C//DTD SVG 20010904//EN"
 "http://www.w3.org/TR/2001/REC-SVG-20010904/DTD/svg10.dtd">
<svg version="1.0" xmlns="http://www.w3.org/2000/svg"
 width="1260.000000pt" height="456.000000pt" viewBox="0 0 1260.000000 456.000000"
 preserveAspectRatio="xMidYMid meet">

<g transform="translate(0.000000,456.000000) scale(0.100000,-0.100000)"
fill="#000000" stroke="none">
<path d="M6335 3449 c-349 -51 -530 -285 -512 -664 6 -135 24 -211 67 -301 61
-124 168 -213 314 -260 110 -35 301 -44 429 -20 104 20 197 53 197 69 -1 26
-37 257 -41 261 -3 3 -38 -4 -79 -15 -91 -25 -273 -30 -335 -10 -114 38 -148
108 -149 311 0 104 4 147 18 187 21 62 67 107 128 125 56 17 263 13 348 -5 36
-8 67 -13 68 -12 2 2 12 68 22 147 14 108 16 145 7 150 -14 9 -96 26 -180 39
-75 11 -221 10 -302 -2z"/>
<path d="M1800 2825 l0 -615 190 0 190 0 0 240 0 241 61 -3 61 -3 147 -237
146 -238 437 0 436 0 35 103 34 102 229 0 228 0 32 -100 31 -100 216 -3 216
-2 -171 422 c-94 233 -206 509 -248 613 l-76 190 -223 0 -223 0 -241 -607
c-132 -335 -243 -608 -246 -608 -5 0 -220 325 -403 610 l-18 27 151 219 c83
120 174 252 201 292 l49 72 -220 0 -219 0 -148 -230 -148 -230 -63 0 -63 0 0
230 0 230 -190 0 -190 0 0 -615z m1990 263 c7 -29 35 -123 61 -208 27 -85 49
-161 49 -167 0 -10 -34 -13 -136 -13 -107 0 -135 3 -132 13 13 55 134 427 139
427 3 0 11 -24 19 -52z"/>
<path d="M3100 3310 l0 -130 140 0 140 0 0 130 0 130 -140 0 -140 0 0 -130z"/>
<path d="M4160 3310 l0 -130 145 0 145 0 0 130 0 130 -145 0 -145 0 0 -130z"/>
<path d="M4610 2825 l0 -615 190 0 190 0 0 200 0 201 82 -3 82 -3 100 -197
101 -198 223 0 c122 0 222 3 222 6 0 3 -67 109 -150 235 -82 125 -150 230
-150 233 0 3 17 14 39 25 53 28 116 102 143 170 31 80 31 232 -1 313 -38 98
-134 176 -260 214 -88 25 -217 34 -513 34 l-298 0 0 -615z m633 312 c18 -8 38
-21 45 -29 19 -23 26 -107 13 -154 -18 -67 -44 -78 -188 -82 l-123 -4 0 141 0
141 110 0 c70 0 122 -5 143 -13z"/>
<path d="M7010 2825 l0 -615 190 0 190 0 0 230 0 230 205 0 205 0 0 -230 0
-230 190 0 190 0 -2 613 -3 612 -187 3 -188 2 -2 -227 -3 -228 -202 -3 -203
-2 0 230 0 230 -190 0 -190 0 0 -615z"/>
<path d="M8410 2825 l0 -615 500 0 500 0 0 150 0 150 -310 0 -310 0 0 95 0 95
250 0 250 0 0 135 0 135 -250 0 -250 0 0 80 0 80 300 0 300 0 0 118 c0 64 -3
134 -6 155 l-7 37 -483 0 -484 0 0 -615z"/>
<path d="M9590 2826 l0 -616 190 0 190 0 0 200 0 200 83 0 82 0 100 -196 c55
-108 105 -198 110 -200 6 -3 108 -3 227 -2 l216 3 -132 200 c-72 110 -142 217
-154 237 l-23 37 33 16 c119 58 185 192 176 358 -10 188 -118 305 -326 354
-52 12 -149 17 -419 20 l-353 5 0 -616z m671 286 c25 -28 29 -40 29 -95 0
-121 -38 -147 -217 -147 l-103 0 0 141 0 141 131 -3 131 -4 29 -33z"/>
</g>
</svg>
